HIERARCHY
ROOT Hips
{
	OFFSET 53.753399 -0.553584 96.938904
	CHANNELS 6 Xposition Yposition Zposition Xrotation Yrotation Zrotation
	JOINT spine
	{
		OFFSET 0.000000 -0.458068 7.965683
		CHANNELS 3 Xrotation Yrotation Zrotation
		JOINT spine1
		{
			OFFSET 0.000000 -0.000002 10.243103
			CHANNELS 3 Xrotation Yrotation Zrotation
			JOINT spine2
			{
				OFFSET 0.000000 -0.000002 9.814751
				CHANNELS 3 Xrotation Yrotation Zrotation
				JOINT Neck
				{
					OFFSET 0.000000 -1.201384 25.198601
					CHANNELS 3 Xrotation Yrotation Zrotation
					JOINT Head
					{
						OFFSET 0.000000 -0.000001 7.613144
						CHANNELS 3 Xrotation Yrotation Zrotation
						End Site
						{
							OFFSET 0.000000 6.077327 18.428101
						}
					}
				}
				JOINT RightShoulder
				{
					OFFSET -4.132702 0.575449 10.599205
					CHANNELS 3 Xrotation Yrotation Zrotation
					JOINT RightArm
					{
						OFFSET 0.000000 -0.000002 13.901794
						CHANNELS 3 Xrotation Yrotation Zrotation
						JOINT RightArmRoll
						{
							OFFSET 0.000000 -0.000001 7.017883
							CHANNELS 3 Xrotation Yrotation Zrotation
							JOINT RightForeArm
							{
								OFFSET 0.000000 -0.000003 20.440598
								CHANNELS 3 Xrotation Yrotation Zrotation
								JOINT RightForeArmRoll
								{
									OFFSET 0.000000 -0.000001 7.875153
									CHANNELS 3 Xrotation Yrotation Zrotation
									JOINT RightHand
									{
										OFFSET 0.000000 -0.000003 15.803696
										CHANNELS 3 Xrotation Yrotation Zrotation
										End Site
										{
											OFFSET 0.000000 0.000000 0.100006
										}
									}
								}
							}
						}
					}
				}
				JOINT LeftShoulder
				{
					OFFSET 4.132702 0.575449 10.599205
					CHANNELS 3 Xrotation Yrotation Zrotation
					JOINT LeftArm
					{
						OFFSET 0.000000 -0.000002 13.901794
						CHANNELS 3 Xrotation Yrotation Zrotation
						JOINT LeftArmRoll
						{
							OFFSET 0.000000 -0.000001 7.017883
							CHANNELS 3 Xrotation Yrotation Zrotation
							JOINT LeftForeArm
							{
								OFFSET 0.000000 -0.000003 20.440598
								CHANNELS 3 Xrotation Yrotation Zrotation
								JOINT LeftForeArmRoll
								{
									OFFSET 0.000000 -0.000001 7.875153
									CHANNELS 3 Xrotation Yrotation Zrotation
									JOINT LeftHand
									{
										OFFSET 0.000000 -0.000003 15.803696
										CHANNELS 3 Xrotation Yrotation Zrotation
										End Site
										{
											OFFSET 0.000000 0.000000 0.100006
										}
									}
								}
							}
						}
					}
				}
			}
		}
	}
	JOINT RightUpLeg
	{
		OFFSET -7.060482 1.086090 -1.294701
		CHANNELS 3 Xrotation Yrotation Zrotation
		JOINT RightUpLegRoll
		{
			OFFSET 0.000000 -0.000003 18.530800
			CHANNELS 3 Xrotation Yrotation Zrotation
			JOINT RightLeg
			{
				OFFSET 0.000000 0.000004 -22.947601
				CHANNELS 3 Xrotation Yrotation Zrotation
				JOINT RightLegRoll
				{
					OFFSET 0.000000 -0.000004 23.022598
					CHANNELS 3 Xrotation Yrotation Zrotation
					JOINT RightFoot
					{
						OFFSET 0.000000 -0.000003 19.162506
						CHANNELS 3 Xrotation Yrotation Zrotation
						JOINT RightToeBase
						{
							OFFSET 0.000000 -0.000003 16.018799
							CHANNELS 3 Xrotation Yrotation Zrotation
							End Site
							{
								OFFSET 0.006790 0.894205 7.757812
							}
						}
					}
				}
			}
		}
	}
	JOINT LeftUpLeg
	{
		OFFSET 7.060482 1.086090 -1.294701
		CHANNELS 3 Xrotation Yrotation Zrotation
		JOINT LeftUpLegRoll
		{
			OFFSET 0.000000 -0.000003 18.530899
			CHANNELS 3 Xrotation Yrotation Zrotation
			JOINT LeftLeg
			{
				OFFSET 0.000000 -0.000004 22.947502
				CHANNELS 3 Xrotation Yrotation Zrotation
				JOINT LeftLegRoll
				{
					OFFSET 0.000000 -0.000004 23.235504
					CHANNELS 3 Xrotation Yrotation Zrotation
					JOINT LeftFoot
					{
						OFFSET 0.000000 -0.000003 18.949600
						CHANNELS 3 Xrotation Yrotation Zrotation
						JOINT LeftToeBase
						{
							OFFSET 0.000000 -0.000003 16.018799
							CHANNELS 3 Xrotation Yrotation Zrotation
							End Site
							{
								OFFSET -0.030430 0.894205 7.757812
							}
						}
					}
				}
			}
		}
	}
}
MOTION
Frames: 8
Frame Time: 0.041667
53.861008 -0.932257 97.086304 -5.775722 -0.222644 7.645490 -0.301673 -0.011540 -0.291982 3.399471 -0.001174 -0.583907 5.044522 -0.008170 -0.583844 13.440895 6.149964 -1.298176 15.638393 -11.812786 1.302207 -9.629937 -68.575953 -11.936317 -52.584411 -116.947496 -43.921665 -0.000001 -0.000045 0.000001 11.638191 -6.803445 -0.267679 0.000005 0.000004 -3.000001 -5.000206 -7.999124 0.000101 -8.967804 63.485331 10.880627 -47.961588 117.643711 48.256383 -0.000000 -0.000000 0.000000 9.370531 11.840678 -0.334969 -0.000003 -0.000026 3.000001 -5.000162 7.998745 -0.000158 2.450678 -177.820997 3.617896 -179.999991 0.000005 -1.149994 172.963776 -2.918896 -0.585104 -0.000003 0.000004 0.102965 69.906228 6.893081 2.080083 25.456957 -7.355614 -0.000001 5.360802 176.697486 -1.666776 -0.000005 -0.000005 -1.222011 -5.445066 2.747216 0.257620 0.000000 -0.000000 -0.058361 68.561978 -6.917817 -2.093051 25.456952 7.355612 0.000002 
53.862106 -0.932781 97.085388 -5.793835 -0.222152 7.630937 -0.296687 -0.011319 -0.290463 3.409441 -0.002254 -0.580927 5.054491 -0.009232 -0.580844 13.442743 6.151425 -1.301288 15.641666 -11.817918 1.300588 -9.628791 -68.581376 -11.935354 -52.579841 -116.936486 -43.856430 -0.000002 -0.000045 0.000001 11.637871 -6.757353 -0.273419 0.000006 0.000005 -3.000001 -5.000207 -7.999122 0.000101 -8.987909 63.479020 10.903405 -47.931413 117.624709 48.220056 -0.000001 -0.000000 -0.000000 9.367991 11.840961 -0.334831 -0.000002 -0.000026 3.000001 -5.000162 7.998745 -0.000159 2.462648 -177.820027 3.624704 -179.999991 0.000005 -1.149994 172.955648 -2.923807 -0.585133 -0.000003 0.000004 0.102965 69.905169 6.893083 2.080050 25.456960 -7.355613 -0.000001 5.386668 176.693633 -1.676330 -0.000005 -0.000004 -1.222011 -5.441783 2.751780 0.257568 0.000000 -0.000000 -0.058351 68.562197 -6.917832 -2.093039 25.456952 7.355612 0.000002 
53.838108 -1.004546 97.087502 -5.812416 -0.221713 7.616021 -0.291561 -0.011068 -0.288857 3.419691 -0.003300 -0.577782 5.064742 -0.010271 -0.577676 13.444102 6.153348 -1.304424 15.644955 -11.823433 1.299009 -9.627437 -68.586000 -11.934104 -52.573452 -116.927388 -43.789330 -0.000003 -0.000045 0.000001 11.634826 -6.711003 -0.279354 0.000004 0.000004 -3.000001 -5.000203 -7.999122 0.000101 -9.008833 63.472770 10.927128 -47.904645 117.605954 48.188470 -0.000001 0.000000 0.000001 9.363052 11.842308 -0.334617 -0.000004 -0.000026 3.000001 -5.000161 7.998744 -0.000159 2.474927 -177.819030 3.631892 -179.999991 0.000005 -1.149994 172.947015 -2.930694 -0.585434 -0.000003 0.000004 0.102965 69.904213 6.893088 2.080110 25.456959 -7.355614 -0.000001 5.413485 176.689808 -1.686015 -0.000005 -0.000004 -1.222011 -5.437870 2.756368 0.257488 0.000001 -0.000000 -0.058332 68.562088 -6.917825 -2.093043 25.456953 7.355613 0.000001 
53.846809 -0.990754 97.087204 -5.831336 -0.221308 7.600828 -0.286333 -0.010795 -0.287192 3.430151 -0.004322 -0.574521 5.075192 -0.011292 -0.574394 13.445065 6.155582 -1.307571 15.648259 -11.829140 1.297427 -9.625866 -68.589934 -11.932581 -52.566475 -116.919410 -43.721704 0.000002 -0.000045 0.000000 11.629877 -6.664473 -0.285423 0.000007 0.000005 -3.000001 -5.000204 -7.999125 0.000101 -9.030278 63.466459 10.951451 -47.877785 117.588496 48.157437 0.000001 0.000000 0.000000 9.356441 11.844405 -0.334373 -0.000003 -0.000026 3.000001 -5.000162 7.998745 -0.000159 2.487418 -177.818046 3.639354 -179.999991 0.000005 -1.149994 172.937972 -2.936589 -0.585636 -0.000003 0.000004 0.102965 69.903366 6.893096 2.080164 25.456960 -7.355614 -0.000001 5.440959 176.685970 -1.695789 -0.000005 -0.000005 -1.222010 -5.433496 2.760987 0.257390 0.000001 -0.000000 -0.058310 68.561978 -6.917819 -2.093051 25.456955 7.355613 0.000000 
53.843708 -1.009952 97.087402 -5.850450 -0.220918 7.585483 -0.281047 -0.010509 -0.285491 3.440711 -0.005329 -0.571191 5.085762 -0.012304 -0.571041 13.445930 6.158002 -1.310741 15.651472 -11.835047 1.295848 -9.624217 -68.593561 -11.930957 -52.558377 -116.912280 -43.652893 0.000001 -0.000044 0.000000 11.623824 -6.617827 -0.291560 0.000006 0.000005 -3.000001 -5.000206 -7.999123 0.000102 -9.052023 63.460141 10.976127 -47.851844 117.571461 48.127753 0.000001 0.000001 0.000000 9.348844 11.846831 -0.334074 -0.000002 -0.000026 3.000001 -5.000162 7.998745 -0.000159 2.500040 -177.817077 3.646968 -179.999991 0.000005 -1.149994 172.928710 -2.942482 -0.585849 -0.000003 0.000004 0.102965 69.902628 6.893074 2.080206 25.456955 -7.355613 -0.000001 5.468818 176.682131 -1.705621 -0.000005 -0.000004 -1.222010 -5.428871 2.765618 0.257279 0.000001 -0.000000 -0.058285 68.561664 -6.917835 -2.092973 25.456950 7.355611 0.000002 
53.827709 -1.018791 97.085495 -5.869612 -0.220524 7.570100 -0.275746 -0.010221 -0.283783 3.451311 -0.006332 -0.567845 5.096352 -0.013312 -0.567673 13.446700 6.160464 -1.313909 15.654684 -11.840950 1.294260 -9.622531 -68.597099 -11.929282 -52.552131 -116.904698 -43.586166 -0.000001 -0.000045 0.000001 11.617581 -6.571158 -0.297706 0.000003 0.000004 -3.000001 -5.000206 -7.999124 0.000101 -9.073888 63.453919 11.000925 -47.825872 117.554440 48.098196 -0.000001 0.000000 -0.000000 9.341017 11.849363 -0.333763 -0.000001 -0.000026 3.000001 -5.000162 7.998745 -0.000159 2.512693 -177.815109 3.654655 -179.999991 0.000005 -1.149994 172.919394 -2.949377 -0.586180 -0.000003 0.000004 0.102965 69.901877 6.893087 2.080255 25.456959 -7.355614 -0.000001 5.496768 176.678320 -1.715461 -0.000005 -0.000004 -1.222009 -5.424187 2.770259 0.257167 0.000000 -0.000000 -0.058258 68.561343 -6.917812 -2.093090 25.456955 7.355613 0.000000 
53.837311 -1.005718 97.084290 -5.888673 -0.220106 7.554799 -0.270477 -0.009937 -0.282092 3.461851 -0.007340 -0.564531 5.106891 -0.014323 -0.564337 13.447466 6.162839 -1.317060 15.657995 -11.846755 1.292677 -9.620903 -68.600835 -11.927675 -52.543887 -116.897486 -43.517205 -0.000001 -0.000045 0.000000 11.611852 -6.524531 -0.303802 0.000008 0.000005 -3.000001 -5.000206 -7.999125 0.000102 -9.095548 63.447594 11.025505 -47.799546 117.537283 48.068033 0.000000 -0.000001 0.000000 9.333675 11.851675 -0.333469 -0.000003 -0.000026 3.000001 -5.000162 7.998744 -0.000159 2.525282 -177.814112 3.662241 -179.999991 0.000006 -1.149995 172.910200 -2.955269 -0.585399 -0.000002 0.000004 0.102965 69.901140 6.893063 2.080297 25.456959 -7.355615 -0.000001 5.524537 176.674482 -1.725283 -0.000005 -0.000004 -1.222009 -5.419624 2.774879 0.257057 0.000001 -0.000000 -0.058234 68.561138 -6.917834 -2.093007 25.456953 7.355611 0.000002 
53.841209 -1.023200 97.082993 -5.907503 -0.219648 7.539683 -0.265276 -0.009670 -0.280443 3.472252 -0.008364 -0.561302 5.117291 -0.015345 -0.561084 13.448628 6.164977 -1.320214 15.661187 -11.852370 1.291069 -9.619380 -68.604954 -11.926221 -52.538051 -116.888675 -43.450873 -0.000001 -0.000045 0.000000 11.607439 -6.478053 -0.309805 0.000005 0.000005 -3.000001 -5.000211 -7.999123 0.000102 -9.116800 63.441297 11.049607 -47.772286 117.519702 48.036352 -0.000000 -0.000001 0.000000 9.327533 11.853460 -0.333210 -0.000005 -0.000026 3.000001 -5.000162 7.998743 -0.000159 2.537713 -177.813142 3.669619 -179.999991 0.000005 -1.149994 172.901253 -2.962166 -0.585727 -0.000003 0.000004 0.102965 69.900279 6.893073 2.080253 25.456957 -7.355614 -0.000000 5.551823 176.670657 -1.735053 -0.000005 -0.000004 -1.222009 -5.415380 2.779498 0.256963 0.000000 -0.000000 -0.058213 68.560927 -6.917818 -2.093117 25.456948 7.355612 0.000001 
